<svg width="557" height="203" viewBox="0 0 557 203" fill="none" xmlns="http://www.w3.org/2000/svg">
<path d="M154 102.5C154 146.407 137 169.5 71 174.5C41 176.773 0 144.407 0 100.5C0 56.5934 41.5 26 79.5 26C124.5 28 152 51 154 102.5Z" fill="#42287B"/>
<path d="M96.5 102C86.1993 102 80.4663 119.763 78.4451 130.784C78.1155 132.581 78.0649 134.465 78.8151 136.131C82.7296 144.824 96.7996 146.457 100 146C103.267 145.533 115.247 138.532 118.454 130.282C118.903 129.126 119.007 127.87 118.98 126.63C118.513 105.776 110.103 102 96.5 102Z" fill="#8965D8"/>
<path d="M84 89.5994C84 108.929 67.33 124.599 48 124.599C28.67 124.599 12 108.929 12 89.5994C12 70.2695 25.5 56.0994 48 56.0994C78 54.5994 84 70.2695 84 89.5994Z" fill="#FFA191"/>
<path d="M231.69 54.905C241.95 54.905 250.815 56.84 258.285 60.71C265.845 64.49 271.605 69.935 275.565 77.045C279.615 84.155 281.64 92.525 281.64 102.155C281.64 111.785 279.615 120.155 275.565 127.265C271.605 134.285 265.845 139.685 258.285 143.465C250.815 147.155 241.95 149 231.69 149H202.395V54.905H231.69ZM231.69 138.875C243.84 138.875 253.11 135.68 259.5 129.29C265.89 122.81 269.085 113.765 269.085 102.155C269.085 90.455 265.845 81.32 259.365 74.75C252.975 68.18 243.75 64.895 231.69 64.895H214.68V138.875H231.69ZM293.254 111.74C293.254 104.18 294.784 97.565 297.844 91.895C300.904 86.135 305.089 81.68 310.399 78.53C315.799 75.38 321.784 73.805 328.354 73.805C334.834 73.805 340.459 75.2 345.229 77.99C349.999 80.78 353.554 84.29 355.894 88.52V75.02H368.314V149H355.894V135.23C353.464 139.55 349.819 143.15 344.959 146.03C340.189 148.82 334.609 150.215 328.219 150.215C321.649 150.215 315.709 148.595 310.399 145.355C305.089 142.115 300.904 137.57 297.844 131.72C294.784 125.87 293.254 119.21 293.254 111.74ZM355.894 111.875C355.894 106.295 354.769 101.435 352.519 97.295C350.269 93.155 347.209 90.005 343.339 87.845C339.559 85.595 335.374 84.47 330.784 84.47C326.194 84.47 322.009 85.55 318.229 87.71C314.449 89.87 311.434 93.02 309.184 97.16C306.934 101.3 305.809 106.16 305.809 111.74C305.809 117.41 306.934 122.36 309.184 126.59C311.434 130.73 314.449 133.925 318.229 136.175C322.009 138.335 326.194 139.415 330.784 139.415C335.374 139.415 339.559 138.335 343.339 136.175C347.209 133.925 350.269 130.73 352.519 126.59C354.769 122.36 355.894 117.455 355.894 111.875ZM425.12 73.67C434.12 73.67 441.41 76.415 446.99 81.905C452.57 87.305 455.36 95.135 455.36 105.395V149H443.21V107.15C443.21 99.77 441.365 94.145 437.675 90.275C433.985 86.315 428.945 84.335 422.555 84.335C416.075 84.335 410.9 86.36 407.03 90.41C403.25 94.46 401.36 100.355 401.36 108.095V149H389.075V75.02H401.36V85.55C403.79 81.77 407.075 78.845 411.215 76.775C415.445 74.705 420.08 73.67 425.12 73.67ZM470.837 111.74C470.837 104.18 472.367 97.565 475.427 91.895C478.487 86.135 482.672 81.68 487.982 78.53C493.382 75.38 499.367 73.805 505.937 73.805C512.417 73.805 518.042 75.2 522.812 77.99C527.582 80.78 531.137 84.29 533.477 88.52V75.02H545.897V149H533.477V135.23C531.047 139.55 527.402 143.15 522.542 146.03C517.772 148.82 512.192 150.215 505.802 150.215C499.232 150.215 493.292 148.595 487.982 145.355C482.672 142.115 478.487 137.57 475.427 131.72C472.367 125.87 470.837 119.21 470.837 111.74ZM533.477 111.875C533.477 106.295 532.352 101.435 530.102 97.295C527.852 93.155 524.792 90.005 520.922 87.845C517.142 85.595 512.957 84.47 508.367 84.47C503.777 84.47 499.592 85.55 495.812 87.71C492.032 89.87 489.017 93.02 486.767 97.16C484.517 101.3 483.392 106.16 483.392 111.74C483.392 117.41 484.517 122.36 486.767 126.59C489.017 130.73 492.032 133.925 495.812 136.175C499.592 138.335 503.777 139.415 508.367 139.415C512.957 139.415 517.142 138.335 520.922 136.175C524.792 133.925 527.852 130.73 530.102 126.59C532.352 122.36 533.477 117.455 533.477 111.875Z" fill="#3D2967"/>
</svg>
